<svg xmlns="http://www.w3.org/2000/svg" version="1.1" xmlns:xlink="http://www.w3.org/1999/xlink" xmlns:svgjs="http://svgjs.dev/svgjs" width="1500" height="318" viewBox="0 0 1500 318"><g transform="matrix(1,0,0,1,-0.9090909090909918,-0.2800883528772147)"><svg viewBox="0 0 396 84" data-background-color="#ffffff" preserveAspectRatio="xMidYMid meet" height="318" width="1500" xmlns="http://www.w3.org/2000/svg" xmlns:xlink="http://www.w3.org/1999/xlink"><g id="tight-bounds" transform="matrix(1,0,0,1,0.2400000000000091,0.07398560264681464)"><svg viewBox="0 0 395.52 83.85202879470637" height="83.85202879470637" width="395.52"><g><svg viewBox="0 0 510.6330598969098 108.25651810781933" height="83.85202879470637" width="395.52"><g transform="matrix(1,0,0,1,115.11305989690983,8.049890914035942)"><svg viewBox="0 0 395.52 92.15673627974745" height="92.15673627974745" width="395.52"><g id="textblocktransform"><svg viewBox="0 0 395.52 92.15673627974745" height="92.15673627974745" width="395.52" id="textblock"><g><svg viewBox="0 0 395.52 92.15673627974745" height="92.15673627974745" width="395.52"><g transform="matrix(1,0,0,1,0,0)"><svg width="395.52" viewBox="1.66 -35.4 201.06 46.849999999999994" height="92.15673627974745" data-palette-color="#624cf5"><path d="M14.84-2.15L14.84 0 1.66 0 1.66-2.15 4.64-2.34Q5.18-2.39 5.43-2.73 5.69-3.08 5.69-3.44L5.69-3.44 5.69-30.1Q5.69-30.47 5.43-30.8 5.18-31.13 4.64-31.15L4.64-31.15 1.66-31.35 1.66-33.54 14.84-33.54 14.84-31.35 11.79-31.15Q11.28-31.13 11.01-30.8 10.74-30.47 10.74-30.1L10.74-30.1 10.74-3.44Q10.74-3.08 11.01-2.73 11.28-2.39 11.79-2.34L11.79-2.34 14.84-2.15ZM57.91-1.95L57.91 0 46.7 0 46.7-1.95 48.8-2.1Q49.85-2.17 49.85-3.2L49.85-3.2 49.85-15.94Q49.85-18.26 48.89-19.65 47.92-21.04 45.41-21.04L45.41-21.04Q44.16-21.04 42.69-20.65 41.21-20.26 40.06-19.65L40.06-19.65 40.06-3.2Q40.06-2.17 41.11-2.1L41.11-2.1 43.21-1.95 43.21 0 32.25 0 32.25-1.95 34.35-2.1Q35.4-2.17 35.4-3.2L35.4-3.2 35.4-16.26Q35.4-18.38 34.4-19.71 33.4-21.04 31-21.04L31-21.04Q29.59-21.04 28.05-20.57 26.51-20.09 25.66-19.6L25.66-19.6 25.66-3.2Q25.66-2.17 26.71-2.1L26.71-2.1 28.81-1.95 28.81 0 17.5 0 17.5-1.95 19.94-2.1Q20.99-2.17 20.99-3.2L20.99-3.2 20.99-20.56 17.55-20.56 17.55-22.19 23.61-24.1 25.66-24.1 25.66-21.61Q26.78-22.29 28.18-23 29.59-23.71 31.05-24.21 32.52-24.71 33.81-24.71L33.81-24.71Q35.98-24.71 37.33-23.6 38.67-22.49 39.3-21.24L39.3-21.24Q40.31-21.88 41.84-22.69 43.38-23.51 45.03-24.11 46.68-24.71 48-24.71L48-24.71Q50.63-24.71 52.02-23.5 53.42-22.29 53.93-20.52 54.44-18.75 54.44-17.04L54.44-17.04 54.44-3.2Q54.44-2.73 54.75-2.44 55.05-2.15 55.49-2.1L55.49-2.1 57.91-1.95ZM83.61-1.95L83.61 0 76.22 0 75.56-2.95Q75.56-2.95 74.81-2.42 74.07-1.88 72.85-1.17 71.63-0.46 70.15 0.07 68.67 0.61 67.21 0.61L67.21 0.61Q64.5 0.61 62.6-1.2 60.71-3 60.71-6.15L60.71-6.15Q60.71-7.54 61.21-8.74 61.71-9.94 63.22-11.02 64.72-12.11 67.68-13.15 70.65-14.18 75.56-15.26L75.56-15.26 75.56-17.41Q75.56-22.34 70.89-22.34L70.89-22.34Q69.6-22.34 68.66-22.09 67.72-21.85 67.35-21.7L67.35-21.7 67.35-17.36 63.72-17.36Q63.03-17.36 62.45-17.61 61.86-17.87 61.86-18.8L61.86-18.8Q61.86-20.85 63.42-22.16 64.99-23.46 67.39-24.08 69.79-24.71 72.26-24.71L72.26-24.71Q75.36-24.71 77.07-23.74 78.78-22.78 79.46-21.08 80.15-19.38 80.15-17.21L80.15-17.21 80.15-3.2Q80.15-2.73 80.45-2.44 80.76-2.15 81.2-2.1L81.2-2.1 83.61-1.95ZM75.56-4.71L75.56-4.71 75.56-13.35Q72.19-12.52 70.2-11.68 68.21-10.84 67.23-10 66.25-9.16 65.95-8.29 65.64-7.42 65.64-6.49L65.64-6.49Q65.64-4.96 66.63-3.65 67.62-2.34 69.4-2.34L69.4-2.34Q70.41-2.34 71.48-2.7 72.55-3.05 73.48-3.53 74.41-4 74.98-4.36 75.56-4.71 75.56-4.71ZM109.83-23.19L109.83-20.75 104.85-20.75Q105.41-19.85 105.8-18.77 106.19-17.7 106.19-16.26L106.19-16.26Q106.19-13.77 104.83-12 103.46-10.23 101.23-9.28 98.99-8.33 96.38-8.33L96.38-8.33Q96.14-8.33 95.89-8.33 95.65-8.33 95.4-8.35L95.4-8.35Q95.09-7.84 94.98-7.25 94.87-6.67 94.87-6.15L94.87-6.15Q94.87-5.69 94.91-5.37 94.96-5.05 94.99-5L94.99-5 95.7-4.93Q97.45-4.76 99.64-4.44 101.82-4.13 103.86-3.42 105.9-2.71 107.22-1.42 108.54-0.12 108.54 2L108.54 2Q108.54 4.37 106.8 6.53 105.07 8.69 102.13 10.07 99.19 11.45 95.55 11.45L95.55 11.45Q91.08 11.45 88.62 9.41 86.15 7.37 86.15 4.35L86.15 4.35Q86.15 2.17 87.44 0.48 88.74-1.22 91.45-1.71L91.45-1.71Q91.18-2.49 91.06-2.83 90.93-3.17 90.93-4L90.93-4Q90.93-4.98 91.53-6.16 92.13-7.35 93.45-8.69L93.45-8.69Q90.96-9.25 89.1-11.22 87.25-13.18 87.25-16.21L87.25-16.21Q87.25-20.14 90.02-22.42 92.79-24.71 97.28-24.71L97.28-24.71Q99.06-24.71 100.59-24.18 102.12-23.66 103.09-23.19L103.09-23.19 109.83-23.19ZM101.43-16.55L101.43-16.55Q101.43-18.14 100.9-19.53 100.36-20.92 99.33-21.79 98.31-22.66 96.79-22.66L96.79-22.66Q94.69-22.66 93.36-21.03 92.03-19.41 92.03-16.5L92.03-16.5Q92.03-13.99 93.23-12.19 94.43-10.4 96.79-10.4L96.79-10.4Q99.04-10.4 100.24-12.21 101.43-14.01 101.43-16.55ZM104.24 3.34L104.24 3.34Q104.24 1.78 103.15 0.93 102.07 0.07 100.46-0.34 98.85-0.76 97.21-0.94 95.57-1.12 94.45-1.34L94.45-1.34Q92.28-0.56 91.46 0.78 90.64 2.12 90.64 3.34L90.64 3.34Q90.64 4.54 91.34 5.9 92.03 7.25 93.49 8.2 94.94 9.16 97.18 9.16L97.18 9.16Q99.58 9.16 101.14 8.2 102.7 7.25 103.47 5.9 104.24 4.54 104.24 3.34ZM121.57-32.35L121.57-32.35Q121.57-31.08 120.69-30.16 119.81-29.25 118.54-29.25L118.54-29.25Q117.28-29.25 116.36-30.16 115.44-31.08 115.44-32.35L115.44-32.35Q115.44-33.64 116.36-34.52 117.28-35.4 118.54-35.4L118.54-35.4Q119.81-35.4 120.69-34.52 121.57-33.64 121.57-32.35ZM124.14-1.95L124.14 0 112.39 0 112.39-1.95 114.83-2.1Q115.88-2.17 115.88-3.2L115.88-3.2 115.88-21.04 112.44-21.04 112.44-22.8 118.54-24.71 120.52-24.71 120.52-3.2Q120.52-2.73 120.83-2.44 121.13-2.15 121.57-2.1L121.57-2.1 124.14-1.95ZM153.19-1.95L153.19 0 142.15 0 142.15-1.95 144.25-2.1Q144.69-2.15 144.99-2.44 145.3-2.73 145.3-3.2L145.3-3.2 145.3-16.21Q145.3-18.58 144.2-19.81 143.1-21.04 140.49-21.04L140.49-21.04Q139.07-21.04 137.67-20.64 136.27-20.24 135-19.6L135-19.6 135-3.2Q135-2.17 136.05-2.1L136.05-2.1 138.15-1.95 138.15 0 126.84 0 126.84-1.95 129.28-2.1Q130.33-2.17 130.33-3.2L130.33-3.2 130.33-20.56 126.84-20.56 126.84-22.19 132.95-24.1 135-24.1 135-21.61Q137.1-22.8 139.31-23.75 141.52-24.71 143.25-24.71L143.25-24.71Q146.52-24.71 148.23-22.67 149.94-20.63 149.94-16.99L149.94-16.99 149.94-3.2Q149.94-2.73 150.24-2.44 150.55-2.15 150.99-2.1L150.99-2.1 153.19-1.95ZM187.63-2.15L187.63 0 175.74 0 175.74-2.15 178.62-2.39Q178.82-2.39 178.99-2.65 179.16-2.91 179.16-3.13L179.16-3.13Q179.16-3.22 179.14-3.25L179.14-3.25 175.69-12.4 164.15-12.4 160.82-3.39Q160.8-3.34 160.8-3.25L160.8-3.25Q160.8-2.95 161.06-2.67 161.31-2.39 161.53-2.39L161.53-2.39 164.49-2.15 164.49 0 154.43 0 154.43-2.15 157.33-2.76 168.98-34.35 172.74-34.35 184.34-3.49Q184.53-2.98 184.68-2.81 184.82-2.64 185.39-2.54L185.39-2.54 187.63-2.15ZM165.02-14.79L174.79-14.79 169.88-27.91 165.02-14.79ZM202.72-2.15L202.72 0 189.53 0 189.53-2.15 192.51-2.34Q193.05-2.39 193.31-2.73 193.56-3.08 193.56-3.44L193.56-3.44 193.56-30.1Q193.56-30.47 193.31-30.8 193.05-31.13 192.51-31.15L192.51-31.15 189.53-31.35 189.53-33.54 202.72-33.54 202.72-31.35 199.67-31.15Q199.15-31.13 198.88-30.8 198.62-30.47 198.62-30.1L198.62-30.1 198.62-3.44Q198.62-3.08 198.88-2.73 199.15-2.39 199.67-2.34L199.67-2.34 202.72-2.15Z" opacity="1" transform="matrix(1,0,0,1,0,0)" fill="#624cf5" class="wordmark-text-0" data-fill-palette-color="primary" id="text-0"></path></svg></g></svg></g></svg></g></svg></g><g><svg viewBox="0 0 93.35706622293218 108.25651810781933" height="108.25651810781933" width="93.35706622293218"><g><svg xmlns="http://www.w3.org/2000/svg" xmlns:xlink="http://www.w3.org/1999/xlink" version="1.1" x="0" y="0" viewBox="12.728 5.042 77.602 89.987" enable-background="new 0 0 100 100" xml:space="preserve" height="108.25651810781933" width="93.35706622293218" class="icon-icon-0" data-fill-palette-color="accent" id="icon-0"><g fill="#624cf5" data-fill-palette-color="accent"><path d="M53.832 44.768S38.087 42.088 38.087 10.103C38.087 42.088 22.343 44.768 22.343 44.768S38.087 47.446 38.087 79.434C38.087 47.446 53.832 44.768 53.832 44.768" fill="#624cf5" data-fill-palette-color="accent"></path><path d="M75.547 18.313S66.24 15.45 66.24 5.042C66.24 15.45 56.934 18.313 56.934 18.313S66.242 21.176 66.24 31.584C66.242 21.176 75.549 18.313 75.547 18.313" fill="#624cf5" data-fill-palette-color="accent"></path><path d="M90.33 59.306S75.8 61.524 75.8 76.795C75.8 61.524 61.266 59.306 61.266 59.306S75.8 57.088 75.8 41.819C75.8 57.088 90.33 59.306 90.33 59.306" fill="#624cf5" data-fill-palette-color="accent"></path><path d="M61.587 85.68C54.047 85.377 53.444 76.331 53.444 76.331S52.84 85.377 45.3 85.68C52.84 85.984 53.444 95.029 53.444 95.029S54.047 85.983 61.587 85.68" fill="#624cf5" data-fill-palette-color="accent"></path><path d="M22.035 21.415C17.725 21.243 17.381 16.073 17.381 16.073S17.037 21.243 12.728 21.415C17.038 21.588 17.381 26.758 17.381 26.758S17.725 21.588 22.035 21.415" fill="#624cf5" data-fill-palette-color="accent"></path></g></svg></g></svg></g></svg></g><defs></defs></svg><rect width="395.52" height="83.85202879470637" fill="none" stroke="none" visibility="hidden"></rect></g></svg></g></svg>